<svg width="64" height="64" viewBox="0 0 64 64" fill="none" xmlns="http://www.w3.org/2000/svg">
<defs>
<linearGradient id="grad1" x1="0%" y1="0%" x2="100%" y2="100%">
<stop offset="0%" style="stop-color:#6A5ACD;stop-opacity:1" />
<stop offset="100%" style="stop-color:#4169E1;stop-opacity:1" />
</linearGradient>
</defs>
<path d="M28 4C28 2.89543 28.8954 2 30 2H34C35.1046 2 36 2.89543 36 4V28H60C61.1046 28 62 28.8954 62 30V34C62 35.1046 61.1046 36 60 36H36V60C36 61.1046 35.1046 62 34 62H30C28.8954 62 28 61.1046 28 60V36H4C2.89543 36 2 35.1046 2 34V30C2 28.8954 2.89543 28 4 28H28V4Z" fill="url(#grad1)"/>
<path d="M36 28C39.3137 28 42 25.3137 42 22V4C42 2.89543 41.1046 2 40 2H34C30.6863 2 28 4.68629 28 8V28H36Z" fill="#6A5ACD" fill-opacity="0.6"/>
<path d="M28 36C24.6863 36 22 38.6863 22 42V60C22 61.1046 22.8954 62 24 62H30C33.3137 62 36 59.3137 36 56V36H28Z" fill="#4169E1" fill-opacity="0.6"/>
</svg>